<svg id="svg" version="1.1" xmlns="http://www.w3.org/2000/svg" xmlns:xlink="http://www.w3.org/1999/xlink" width="400" height="400" viewBox="0, 0, 400,400"><g id="svgg"><path id="path0" d="M156.641 128.320 C 155.692 129.287,155.003 130.078,155.111 130.078 C 155.218 130.078,156.082 129.287,157.031 128.320 C 157.980 127.354,158.669 126.563,158.561 126.563 C 158.454 126.563,157.589 127.354,156.641 128.320 M231.055 143.750 C 232.113 144.824,233.066 145.703,233.174 145.703 C 233.281 145.703,232.503 144.824,231.445 143.750 C 230.387 142.676,229.434 141.797,229.326 141.797 C 229.219 141.797,229.997 142.676,231.055 143.750 M197.190 143.948 C 177.650 147.649,166.925 169.149,175.545 187.343 C 177.225 190.890,178.187 191.799,180.249 191.788 C 184.074 191.767,184.962 189.259,182.758 184.700 C 175.346 169.374,184.749 152.316,201.172 151.295 C 218.599 150.212,230.247 168.913,222.032 184.788 C 219.838 189.027,221.010 191.797,224.998 191.797 C 230.144 191.797,234.104 175.606,231.332 165.902 C 226.998 150.734,212.063 141.130,197.190 143.948 M194.358 154.652 C 194.012 155.211,196.923 161.437,197.337 161.023 C 197.753 160.606,195.686 154.606,195.055 154.402 C 194.806 154.322,194.493 154.434,194.358 154.652 M208.568 158.255 C 206.238 162.889,207.002 163.168,209.716 158.675 C 211.537 155.661,211.545 155.636,210.741 155.327 C 210.311 155.162,209.729 155.946,208.568 158.255 M204.599 169.411 C 197.276 175.284,196.720 176.066,197.727 179.087 C 198.994 182.894,204.641 183.599,206.391 180.169 C 207.008 178.961,211.457 164.440,211.260 164.277 C 211.190 164.219,208.193 166.529,204.599 169.411 M183.846 166.594 C 183.576 167.297,183.512 167.265,187.492 168.347 C 191.927 169.552,192.174 168.620,187.793 167.212 C 186.235 166.712,184.764 166.228,184.523 166.137 C 184.282 166.045,183.978 166.251,183.846 166.594 M203.933 176.612 C 204.614 177.885,203.824 179.297,202.430 179.297 C 201.121 179.297,200.391 178.667,200.391 177.539 C 200.391 175.731,203.084 175.026,203.933 176.612 M188.830 180.372 C 186.365 182.021,185.511 183.235,186.849 183.187 C 187.531 183.162,192.601 179.059,192.309 178.767 C 191.898 178.356,191.722 178.437,188.830 180.372 M232.202 202.051 L 231.055 203.320 232.324 202.173 C 233.022 201.542,233.594 200.971,233.594 200.903 C 233.594 200.602,233.271 200.867,232.202 202.051 M172.266 202.539 C 172.994 203.291,173.679 203.906,173.786 203.906 C 173.893 203.906,173.385 203.291,172.656 202.539 C 171.927 201.787,171.243 201.172,171.136 201.172 C 171.028 201.172,171.537 201.787,172.266 202.539 M256.811 232.684 C 256.210 233.473,255.917 233.995,256.161 233.844 C 256.661 233.535,258.352 231.250,258.081 231.250 C 257.984 231.250,257.413 231.895,256.811 232.684 M250.171 240.723 L 249.023 241.992 250.293 240.845 C 250.991 240.214,251.563 239.643,251.563 239.575 C 251.563 239.274,251.240 239.539,250.171 240.723 M246.274 245.020 L 244.336 247.070 246.387 245.132 C 248.292 243.331,248.617 242.969,248.325 242.969 C 248.263 242.969,247.341 243.892,246.274 245.020 M336.914 246.561 C 337.344 246.804,337.824 247.194,337.982 247.428 C 338.180 247.719,338.271 247.704,338.275 247.377 C 338.279 247.116,337.941 246.721,337.526 246.498 C 336.498 245.948,335.935 246.005,336.914 246.561 M252.336 254.980 L 248.633 258.789 252.441 255.086 C 255.979 251.646,256.428 251.172,256.145 251.172 C 256.087 251.172,254.373 252.886,252.336 254.980 M196.484 259.107 C 196.484 259.174,197.056 259.745,197.754 260.376 L 199.023 261.523 197.876 260.254 C 196.807 259.071,196.484 258.805,196.484 259.107 M199.219 261.841 C 199.219 261.908,199.790 262.479,200.488 263.111 L 201.758 264.258 200.611 262.988 C 199.541 261.805,199.219 261.539,199.219 261.841 M211.816 271.363 C 212.192 271.461,212.808 271.461,213.184 271.363 C 213.560 271.265,213.252 271.184,212.500 271.184 C 211.748 271.184,211.440 271.265,211.816 271.363 M221.001 271.370 C 221.487 271.463,222.190 271.460,222.563 271.362 C 222.937 271.264,222.539 271.188,221.680 271.192 C 220.820 271.197,220.515 271.277,221.001 271.370 " stroke="none" fill="#f8fafb" fill-rule="evenodd"></path><path id="path1" d="M247.249 128.223 C 248.868 129.947,249.219 130.257,249.219 129.964 C 249.219 129.901,248.384 129.066,247.363 128.109 L 245.508 126.367 247.249 128.223 M199.707 131.519 C 200.083 131.618,200.698 131.618,201.074 131.519 C 201.450 131.421,201.143 131.341,200.391 131.341 C 199.639 131.341,199.331 131.421,199.707 131.519 M178.910 145.894 C 178.644 146.214,178.271 146.379,178.081 146.262 C 177.890 146.144,177.734 146.234,177.734 146.461 C 177.734 147.108,178.328 146.949,179.102 146.094 C 179.490 145.664,179.715 145.313,179.601 145.313 C 179.486 145.313,179.175 145.574,178.910 145.894 M181.250 152.148 C 180.301 153.115,179.613 153.906,179.720 153.906 C 179.828 153.906,180.692 153.115,181.641 152.148 C 182.589 151.182,183.278 150.391,183.170 150.391 C 183.063 150.391,182.199 151.182,181.250 152.148 M200.298 151.448 C 200.783 151.542,201.487 151.538,201.860 151.440 C 202.233 151.342,201.836 151.266,200.977 151.270 C 200.117 151.275,199.812 151.355,200.298 151.448 M138.763 169.141 C 138.763 169.893,138.843 170.200,138.941 169.824 C 139.039 169.448,139.039 168.833,138.941 168.457 C 138.843 168.081,138.763 168.389,138.763 169.141 M172.364 171.680 C 172.368 172.539,172.448 172.845,172.542 172.359 C 172.635 171.873,172.632 171.170,172.534 170.796 C 172.436 170.423,172.360 170.820,172.364 171.680 M243.476 173.438 C 243.476 174.619,243.550 175.103,243.639 174.512 C 243.729 173.921,243.729 172.954,243.639 172.363 C 243.550 171.772,243.476 172.256,243.476 173.438 M224.708 174.023 C 224.712 174.883,224.792 175.188,224.886 174.702 C 224.979 174.217,224.976 173.513,224.878 173.140 C 224.780 172.767,224.704 173.164,224.708 174.023 M172.364 176.367 C 172.368 177.227,172.448 177.532,172.542 177.046 C 172.635 176.560,172.632 175.857,172.534 175.484 C 172.436 175.110,172.360 175.508,172.364 176.367 M265.325 178.516 C 265.325 179.268,265.405 179.575,265.504 179.199 C 265.602 178.823,265.602 178.208,265.504 177.832 C 265.405 177.456,265.325 177.764,265.325 178.516 M179.785 192.066 C 180.161 192.164,180.776 192.164,181.152 192.066 C 181.528 191.968,181.221 191.888,180.469 191.888 C 179.717 191.888,179.409 191.968,179.785 192.066 M189.258 207.310 C 189.688 207.413,190.206 207.656,190.410 207.850 C 190.614 208.044,190.955 208.203,191.168 208.203 C 191.381 208.203,191.214 207.945,190.797 207.630 C 190.380 207.314,189.688 207.071,189.258 207.089 L 188.477 207.122 189.258 207.310 M193.001 208.735 C 193.091 208.813,193.946 208.977,194.902 209.099 C 196.026 209.243,196.439 209.195,196.073 208.964 C 195.551 208.633,192.635 208.417,193.001 208.735 M197.563 209.651 C 198.049 209.745,198.752 209.741,199.126 209.643 C 199.499 209.546,199.102 209.469,198.242 209.474 C 197.383 209.478,197.077 209.558,197.563 209.651 M148.438 213.156 C 147.041 213.710,145.020 214.552,143.945 215.027 C 142.871 215.503,141.421 216.117,140.723 216.392 C 139.196 216.993,139.203 216.858,140.472 221.484 C 141.032 223.525,142.157 228.416,142.973 232.352 C 144.728 240.817,143.908 239.709,148.633 239.996 C 152.786 240.248,153.486 240.336,158.427 241.228 C 161.711 241.820,168.869 243.734,170.898 244.563 C 171.543 244.827,172.304 245.089,172.589 245.147 C 173.449 245.322,181.163 248.437,185.742 250.459 L 190.039 252.357 183.588 245.807 C 180.039 242.205,172.449 234.512,166.720 228.711 C 160.991 222.910,155.210 216.846,153.875 215.234 C 150.961 211.719,151.521 211.934,148.438 213.156 M251.953 213.573 C 250.964 215.055,242.080 224.233,220.175 246.400 C 213.534 253.122,208.194 258.715,208.310 258.831 C 209.507 260.028,220.698 259.757,225.175 258.422 C 237.226 254.831,245.900 247.252,261.233 226.919 L 267.887 218.096 260.994 215.307 C 257.203 213.773,253.838 212.425,253.516 212.313 C 253.142 212.183,252.576 212.639,251.953 213.573 M127.734 221.684 C 111.743 228.348,102.756 232.030,102.234 232.133 C 101.972 232.184,101.670 232.319,101.563 232.431 C 101.455 232.544,100.225 233.091,98.828 233.648 C 90.366 237.018,83.927 239.646,82.227 240.422 C 80.597 241.165,79.155 241.723,78.125 242.008 C 78.018 242.037,77.139 242.419,76.172 242.855 C 72.132 244.677,67.353 246.615,66.896 246.615 C 65.845 246.615,66.482 247.526,67.871 248.010 C 68.677 248.291,70.303 248.935,71.484 249.441 C 72.666 249.947,76.270 251.432,79.492 252.741 C 82.715 254.049,86.113 255.469,87.043 255.897 C 89.037 256.813,88.715 256.894,96.079 253.620 C 107.564 248.514,120.703 243.384,120.703 244.006 C 120.703 244.133,120.923 244.059,121.191 243.842 C 122.126 243.086,130.878 241.022,135.547 240.455 C 140.220 239.888,140.654 239.770,140.466 239.114 C 140.312 238.572,139.074 232.454,138.480 229.297 C 137.698 225.140,135.678 218.756,135.156 218.793 C 134.834 218.817,131.494 220.117,127.734 221.684 M273.047 229.928 C 261.212 246.209,251.348 257.394,245.307 261.383 C 244.095 262.183,244.289 262.393,246.492 262.666 C 247.454 262.786,248.675 262.970,249.203 263.076 C 249.732 263.181,250.874 263.371,251.742 263.497 C 254.629 263.915,260.725 265.305,262.012 265.840 C 262.710 266.129,263.281 266.299,263.281 266.216 C 263.281 265.850,271.742 268.971,275.820 270.841 L 278.008 271.844 283.242 269.685 C 287.794 267.808,293.290 265.592,305.078 260.881 C 306.689 260.238,308.535 259.481,309.180 259.201 C 309.824 258.920,315.449 256.621,321.680 254.091 C 327.910 251.561,333.920 249.078,335.034 248.574 C 336.149 248.069,337.248 247.656,337.476 247.656 C 339.402 247.656,337.002 246.489,325.140 241.657 C 322.807 240.707,317.247 238.416,312.783 236.566 C 308.320 234.716,304.590 233.203,304.493 233.203 C 304.397 233.203,303.391 232.779,302.257 232.260 C 299.591 231.040,279.674 222.975,278.906 222.804 C 278.526 222.720,276.467 225.223,273.047 229.928 M138.209 251.374 C 138.120 251.463,137.441 251.617,136.700 251.717 C 135.958 251.817,133.945 252.191,132.227 252.549 C 130.508 252.906,128.838 253.245,128.516 253.303 C 128.193 253.360,127.666 253.514,127.344 253.644 C 127.021 253.774,125.000 254.434,122.852 255.111 C 118.324 256.538,112.663 258.721,107.512 261.026 L 103.892 262.647 105.559 263.292 C 107.250 263.947,140.981 277.817,153.516 283.011 C 159.367 285.436,176.105 292.306,193.164 299.283 C 200.141 302.137,200.781 302.432,200.781 302.794 C 200.781 302.976,201.396 303.125,202.148 303.125 C 202.900 303.125,203.516 302.968,203.516 302.776 C 203.516 302.584,204.702 301.953,206.152 301.373 C 207.603 300.793,221.533 295.079,237.109 288.675 C 252.686 282.271,267.059 276.366,269.051 275.555 C 273.270 273.834,273.283 273.878,267.917 271.818 C 261.476 269.347,253.192 267.392,244.170 266.215 L 239.459 265.600 236.233 267.143 C 221.976 273.963,206.813 272.927,187.576 263.819 C 185.146 262.669,181.895 261.183,180.349 260.516 C 178.804 259.850,176.836 258.984,175.977 258.591 C 170.683 256.172,161.309 253.344,153.125 251.696 C 151.891 251.447,138.426 251.157,138.209 251.374 M203.334 263.267 C 202.723 263.904,202.048 264.317,201.833 264.184 C 201.602 264.041,201.565 264.141,201.741 264.427 C 201.990 264.829,204.688 262.816,204.688 262.228 C 204.688 261.941,204.372 262.183,203.334 263.267 " stroke="none" fill="#24b1f4" fill-rule="evenodd"></path><path id="path2" d="M99.805 263.858 C 98.086 264.351,93.188 265.733,88.920 266.928 C 84.652 268.123,81.098 269.162,81.022 269.238 C 80.946 269.314,86.547 270.933,93.469 272.836 C 100.391 274.738,110.361 277.503,115.625 278.979 C 120.889 280.455,127.041 282.173,129.297 282.798 C 144.966 287.138,169.725 294.017,173.633 295.117 C 176.211 295.842,180.957 297.160,184.180 298.046 C 187.402 298.931,191.590 300.101,193.485 300.646 C 198.906 302.205,197.868 301.597,188.752 297.874 C 184.089 295.970,163.223 287.385,142.383 278.798 C 99.589 261.165,103.906 262.680,99.805 263.858 M296.289 264.701 C 291.148 266.832,274.241 273.802,266.602 276.941 C 263.594 278.177,254.805 281.786,247.070 284.962 C 239.336 288.138,227.998 292.795,221.875 295.310 C 215.752 297.825,209.903 300.198,208.878 300.584 C 205.499 301.854,207.243 301.628,212.944 300.058 C 219.388 298.282,237.460 293.258,245.508 291.005 C 255.229 288.283,312.927 272.262,318.164 270.830 C 320.957 270.067,323.295 269.394,323.361 269.336 C 323.544 269.171,301.341 262.855,300.759 262.906 C 300.664 262.914,298.652 263.722,296.289 264.701 " stroke="none" fill="#131523" fill-rule="evenodd"></path><path id="path3" d="M192.941 109.973 C 150.116 116.649,126.314 163.960,146.175 202.930 C 150.973 212.344,152.251 213.815,179.613 241.406 L 202.275 264.258 214.442 251.953 C 244.263 221.795,250.828 214.865,253.850 210.359 C 271.571 183.929,268.336 149.370,246.078 127.344 C 232.265 113.675,211.899 107.017,192.941 109.973 M205.556 131.249 C 241.134 134.710,256.633 177.874,231.453 203.372 C 211.168 223.914,177.611 218.205,164.830 192.038 C 152.061 165.896,169.469 134.058,198.047 131.287 C 199.873 131.110,201.455 130.946,201.563 130.922 C 201.670 130.899,203.467 131.046,205.556 131.249 M197.070 301.563 C 196.938 301.777,197.059 301.956,197.340 301.958 C 197.621 301.961,198.291 302.060,198.828 302.178 L 199.805 302.393 198.828 301.796 C 197.662 301.084,197.389 301.047,197.070 301.563 M205.469 301.758 C 204.893 302.087,204.732 302.320,205.078 302.325 C 206.168 302.340,207.414 301.866,207.199 301.518 C 206.914 301.056,206.626 301.096,205.469 301.758 " stroke="none" fill="#045b9b" fill-rule="evenodd"></path><path id="path4" d="M199.299 109.274 C 200.740 109.349,203.201 109.349,204.768 109.275 C 206.335 109.200,205.156 109.139,202.148 109.138 C 199.141 109.138,197.859 109.199,199.299 109.274 M194.048 109.651 C 194.533 109.745,195.237 109.741,195.610 109.643 C 195.983 109.546,195.586 109.469,194.727 109.474 C 193.867 109.478,193.562 109.558,194.048 109.651 M208.891 109.651 C 209.377 109.745,210.080 109.741,210.454 109.643 C 210.827 109.546,210.430 109.469,209.570 109.474 C 208.711 109.478,208.405 109.558,208.891 109.651 M211.361 109.911 C 211.450 109.991,212.402 110.158,213.477 110.282 C 214.794 110.434,215.112 110.399,214.453 110.175 C 213.477 109.844,211.053 109.636,211.361 109.911 M179.883 113.100 C 178.906 113.570,178.873 113.624,179.688 113.425 C 180.794 113.155,182.038 112.521,181.445 112.529 C 181.230 112.533,180.527 112.789,179.883 113.100 M176.953 114.258 C 176.416 114.565,176.152 114.816,176.367 114.816 C 176.582 114.816,177.197 114.565,177.734 114.258 C 178.271 113.951,178.535 113.700,178.320 113.700 C 178.105 113.700,177.490 113.951,176.953 114.258 M243.330 124.753 C 244.387 125.901,244.596 126.013,244.316 125.285 C 244.211 125.011,243.733 124.549,243.254 124.257 C 242.423 123.750,242.427 123.773,243.330 124.753 M157.804 127.637 L 154.492 131.055 157.910 127.743 C 161.085 124.667,161.506 124.219,161.222 124.219 C 161.163 124.219,159.625 125.757,157.804 127.637 M248.047 129.419 C 248.047 129.486,248.618 130.058,249.316 130.689 L 250.586 131.836 249.439 130.566 C 248.369 129.383,248.047 129.117,248.047 129.419 M197.173 131.526 C 197.658 131.620,198.362 131.616,198.735 131.518 C 199.108 131.421,198.711 131.344,197.852 131.349 C 196.992 131.353,196.687 131.433,197.173 131.526 M205.766 131.526 C 206.252 131.620,206.955 131.616,207.329 131.518 C 207.702 131.421,207.305 131.344,206.445 131.349 C 205.586 131.353,205.280 131.433,205.766 131.526 M197.471 137.126 C 197.555 137.262,197.084 137.340,196.426 137.301 C 195.767 137.262,194.560 137.460,193.743 137.742 C 192.926 138.023,191.784 138.339,191.206 138.444 C 190.628 138.549,189.464 138.995,188.620 139.434 C 187.776 139.874,186.836 140.234,186.531 140.234 C 186.226 140.234,185.797 140.542,185.578 140.918 C 185.359 141.294,185.175 141.464,185.168 141.295 C 185.162 141.126,184.800 141.179,184.364 141.412 C 183.928 141.645,183.692 142.030,183.838 142.267 C 184.003 142.533,183.926 142.588,183.637 142.409 C 183.078 142.064,181.132 143.243,181.439 143.740 C 181.557 143.931,181.448 144.214,181.196 144.369 C 180.910 144.546,180.843 144.483,181.017 144.201 C 181.481 143.451,180.639 143.696,179.883 144.531 C 179.494 144.961,179.318 145.313,179.492 145.313 C 179.666 145.313,179.485 145.670,179.089 146.108 C 178.693 146.545,178.148 146.817,177.877 146.713 C 177.606 146.609,177.271 146.880,177.133 147.315 C 176.995 147.750,176.789 148.013,176.676 147.900 C 176.455 147.679,175.391 148.606,175.391 149.019 C 175.391 149.154,175.594 149.139,175.842 148.986 C 176.123 148.812,176.186 148.879,176.010 149.165 C 175.854 149.416,175.562 149.520,175.360 149.395 C 175.159 149.271,174.830 149.575,174.631 150.073 C 174.431 150.570,174.257 150.821,174.244 150.631 C 174.230 150.441,173.856 150.747,173.412 151.311 C 172.968 151.875,172.718 152.518,172.855 152.740 C 172.993 152.963,172.872 153.096,172.588 153.037 C 172.275 152.972,172.119 153.215,172.194 153.652 C 172.265 154.069,172.148 154.270,171.918 154.128 C 171.409 153.814,170.189 156.124,170.552 156.712 C 170.708 156.965,170.649 157.044,170.414 156.898 C 169.663 156.435,167.263 163.351,167.010 166.706 C 166.957 167.408,166.799 168.096,166.660 168.236 C 166.168 168.728,166.379 177.939,166.895 178.495 C 167.187 178.810,167.204 178.921,166.936 178.771 C 166.609 178.588,166.586 178.912,166.851 179.983 C 167.050 180.787,167.301 181.885,167.409 182.422 C 168.092 185.810,171.271 192.756,171.947 192.338 C 172.239 192.158,172.318 192.268,172.171 192.652 C 171.931 193.278,173.195 194.644,173.620 194.218 C 173.757 194.081,173.767 194.236,173.642 194.563 C 173.375 195.258,175.224 197.786,176.367 198.289 C 176.797 198.478,177.148 198.821,177.148 199.051 C 177.148 199.972,180.735 202.846,181.406 202.463 C 181.642 202.329,181.710 202.358,181.556 202.528 C 181.255 202.862,183.186 204.556,183.684 204.395 C 183.849 204.341,183.984 204.473,183.984 204.688 C 183.984 204.902,184.116 205.047,184.277 205.010 C 184.722 204.906,186.719 205.944,186.719 206.278 C 186.719 206.440,187.466 206.697,188.379 206.849 C 189.292 207.002,190.495 207.449,191.052 207.843 C 191.849 208.407,192.174 208.459,192.574 208.089 C 192.973 207.719,193.024 207.723,192.808 208.105 C 192.606 208.463,192.983 208.595,194.215 208.600 C 195.156 208.603,195.689 208.739,195.424 208.907 C 194.262 209.646,207.494 209.834,209.961 209.114 C 210.820 208.863,212.314 208.430,213.281 208.150 C 214.248 207.871,215.479 207.418,216.016 207.144 C 216.553 206.870,217.212 206.644,217.480 206.643 C 217.749 206.642,217.969 206.500,217.969 206.328 C 217.969 206.157,218.540 205.808,219.238 205.553 C 221.018 204.904,225.950 201.156,228.227 198.723 C 231.194 195.550,235.424 189.069,234.881 188.526 C 234.746 188.392,234.818 188.281,235.042 188.281 C 235.266 188.281,235.827 187.095,236.290 185.645 C 237.129 183.011,237.236 182.601,237.940 179.297 C 238.385 177.205,238.297 168.350,237.811 166.406 C 237.623 165.654,237.373 164.528,237.256 163.903 C 237.139 163.278,236.855 162.311,236.626 161.754 C 236.396 161.198,236.158 160.490,236.097 160.182 C 235.870 159.040,233.191 153.999,232.045 152.556 C 231.393 151.736,230.859 150.952,230.859 150.814 C 230.859 148.465,219.746 140.504,213.477 138.360 C 209.177 136.890,196.732 135.930,197.471 137.126 M225.391 138.404 C 225.391 138.500,226.036 139.071,226.825 139.673 C 227.613 140.275,228.135 140.567,227.985 140.323 C 227.676 139.823,225.391 138.132,225.391 138.404 M231.055 143.359 C 232.547 144.863,233.856 146.094,233.963 146.094 C 234.071 146.094,232.938 144.863,231.445 143.359 C 229.953 141.855,228.644 140.625,228.537 140.625 C 228.429 140.625,229.562 141.855,231.055 143.359 M173.034 143.262 L 170.898 145.508 173.145 143.373 C 175.231 141.389,175.570 141.016,175.280 141.016 C 175.219 141.016,174.208 142.026,173.034 143.262 M145.880 143.786 C 145.536 144.451,145.324 145.064,145.409 145.149 C 145.494 145.233,145.855 144.690,146.213 143.940 C 147.016 142.256,146.738 142.127,145.880 143.786 M209.903 144.343 C 211.161 144.686,213.138 145.387,214.298 145.900 C 215.457 146.412,216.406 146.754,216.406 146.658 C 216.406 146.563,216.764 146.842,217.202 147.280 C 217.639 147.717,218.148 147.982,218.333 147.868 C 218.517 147.754,218.779 147.949,218.914 148.300 C 219.049 148.652,219.261 148.838,219.385 148.714 C 219.510 148.589,220.047 148.960,220.580 149.537 C 221.112 150.114,221.427 150.322,221.281 150.000 C 221.134 149.678,221.475 149.974,222.039 150.658 C 222.603 151.343,223.807 152.546,224.715 153.332 C 225.624 154.118,226.104 154.643,225.781 154.499 C 225.459 154.355,225.635 154.626,226.172 155.100 C 226.709 155.574,227.103 156.120,227.047 156.313 C 226.991 156.505,227.210 156.764,227.533 156.888 C 227.856 157.012,228.027 157.264,227.913 157.449 C 227.799 157.633,228.049 158.127,228.469 158.547 C 228.888 158.967,229.129 159.412,229.004 159.538 C 228.879 159.663,228.991 159.766,229.255 159.766 C 229.518 159.766,229.625 159.941,229.492 160.156 C 229.359 160.371,229.447 160.547,229.688 160.547 C 229.928 160.547,230.016 160.723,229.883 160.938 C 229.750 161.152,229.790 161.328,229.971 161.328 C 230.153 161.328,230.325 161.636,230.354 162.012 C 230.383 162.388,230.802 163.926,231.285 165.430 C 232.552 169.369,232.585 178.676,231.345 182.393 C 230.885 183.774,230.597 185.048,230.707 185.225 C 230.816 185.402,230.709 185.547,230.469 185.547 C 230.229 185.547,230.141 185.723,230.273 185.938 C 230.406 186.152,230.350 186.328,230.149 186.328 C 229.759 186.328,228.657 188.666,228.813 189.160 C 228.864 189.321,228.701 189.453,228.451 189.453 C 228.200 189.453,228.110 189.568,228.250 189.708 C 228.390 189.849,227.946 190.376,227.263 190.880 C 224.033 193.263,219.857 190.587,220.922 186.816 C 221.089 186.226,221.240 185.604,221.257 185.435 C 221.275 185.266,221.553 184.961,221.875 184.757 C 222.197 184.554,222.317 184.384,222.140 184.381 C 221.964 184.378,222.106 184.089,222.456 183.739 C 222.805 183.389,223.004 182.873,222.896 182.592 C 222.788 182.311,222.861 182.026,223.057 181.959 C 223.254 181.891,223.464 181.396,223.524 180.859 C 223.584 180.322,223.793 179.767,223.988 179.626 C 225.036 178.868,224.503 166.797,223.422 166.797 C 223.229 166.797,223.164 166.556,223.277 166.261 C 223.390 165.967,223.217 165.460,222.893 165.136 C 222.568 164.812,222.412 164.437,222.545 164.304 C 222.678 164.171,222.571 164.063,222.308 164.063 C 222.044 164.063,221.938 163.887,222.070 163.672 C 222.203 163.457,222.115 163.281,221.875 163.281 C 221.635 163.281,221.547 163.105,221.680 162.891 C 221.812 162.676,221.725 162.500,221.484 162.500 C 221.244 162.500,221.150 162.335,221.274 162.133 C 221.399 161.932,221.189 161.586,220.809 161.364 C 220.429 161.142,220.293 160.955,220.508 160.947 C 220.723 160.940,220.371 160.482,219.727 159.931 C 219.082 159.379,218.774 159.039,219.043 159.174 C 219.875 159.595,219.593 159.201,217.911 157.599 C 217.020 156.750,216.424 156.318,216.587 156.641 C 216.750 156.963,216.430 156.699,215.877 156.055 C 215.324 155.410,214.866 155.015,214.858 155.176 C 214.850 155.337,214.486 155.111,214.048 154.673 C 213.611 154.236,213.083 153.982,212.876 154.110 C 212.669 154.238,212.500 154.146,212.500 153.906 C 212.500 153.666,212.324 153.578,212.109 153.711 C 211.895 153.844,211.719 153.773,211.719 153.554 C 211.719 152.676,206.541 151.455,202.887 151.472 C 185.434 151.555,175.062 168.988,183.040 184.830 C 184.747 188.218,184.740 189.166,182.997 190.909 C 178.312 195.594,172.495 186.253,172.481 174.023 C 172.459 153.907,191.019 139.186,209.903 144.343 M141.629 154.129 C 141.486 154.702,141.444 155.246,141.536 155.338 C 141.628 155.430,141.821 155.037,141.964 154.464 C 142.108 153.892,142.150 153.348,142.058 153.256 C 141.966 153.164,141.773 153.557,141.629 154.129 M196.761 157.442 C 197.817 160.422,197.922 161.010,197.427 161.200 C 197.105 161.323,196.795 161.359,196.738 161.279 C 196.648 161.151,194.388 156.041,193.881 154.819 C 193.722 154.435,194.055 154.234,195.313 153.953 C 195.420 153.929,196.072 155.499,196.761 157.442 M211.307 155.820 C 211.614 156.394,211.560 156.618,211.070 156.806 C 210.721 156.940,210.545 157.160,210.680 157.295 C 210.815 157.430,210.674 157.733,210.367 157.969 C 210.060 158.205,209.755 158.647,209.689 158.952 C 209.624 159.256,209.256 159.834,208.872 160.236 C 208.489 160.637,208.268 161.117,208.382 161.301 C 208.496 161.486,208.332 161.736,208.018 161.856 C 206.881 162.292,207.035 161.303,208.585 158.220 C 210.231 154.946,210.644 154.582,211.307 155.820 M139.358 163.867 C 139.255 164.404,139.322 164.844,139.507 164.844 C 139.692 164.844,139.844 164.404,139.844 163.867 C 139.844 163.330,139.776 162.891,139.694 162.891 C 139.612 162.891,139.460 163.330,139.358 163.867 M211.316 165.072 C 211.105 165.627,211.031 166.242,211.153 166.439 C 211.275 166.636,211.209 166.797,211.008 166.797 C 210.584 166.797,209.715 169.914,210.007 170.387 C 210.114 170.561,210.041 170.703,209.843 170.703 C 209.410 170.703,208.142 174.975,208.434 175.449 C 208.547 175.632,208.462 175.781,208.244 175.781 C 207.904 175.781,207.258 177.906,207.234 179.102 C 207.197 180.993,202.385 183.260,200.495 182.277 C 196.758 180.333,196.161 176.725,199.110 173.920 C 202.572 170.628,204.397 169.051,204.122 169.590 C 203.974 169.880,204.415 169.502,205.103 168.750 C 205.790 167.998,206.230 167.646,206.079 167.969 C 205.929 168.291,206.368 167.939,207.056 167.188 C 207.744 166.436,208.183 166.084,208.033 166.406 C 207.882 166.729,208.322 166.377,209.009 165.625 C 209.697 164.873,210.123 164.521,209.957 164.844 C 209.742 165.261,209.864 165.233,210.380 164.746 C 211.409 163.776,211.762 163.899,211.316 165.072 M264.934 166.406 C 264.934 167.158,265.015 167.466,265.113 167.090 C 265.211 166.714,265.211 166.099,265.113 165.723 C 265.015 165.347,264.934 165.654,264.934 166.406 M139.161 166.992 C 139.165 167.852,139.245 168.157,139.339 167.671 C 139.432 167.185,139.429 166.482,139.331 166.109 C 139.233 165.735,139.157 166.133,139.161 166.992 M191.016 168.371 C 191.016 169.179,189.942 169.173,186.877 168.350 C 183.758 167.511,182.905 166.835,183.817 165.923 C 184.125 165.615,191.016 167.958,191.016 168.371 M243.466 169.922 C 243.466 170.889,243.542 171.284,243.635 170.801 C 243.728 170.317,243.728 169.526,243.635 169.043 C 243.542 168.560,243.466 168.955,243.466 169.922 M160.697 173.438 C 160.697 176.123,160.760 177.222,160.836 175.879 C 160.912 174.536,160.912 172.339,160.836 170.996 C 160.760 169.653,160.697 170.752,160.697 173.438 M265.380 173.242 C 265.381 175.605,265.446 176.522,265.523 175.279 C 265.601 174.036,265.601 172.102,265.522 170.982 C 265.443 169.862,265.380 170.879,265.380 173.242 M138.797 174.609 C 138.797 176.006,138.868 176.577,138.954 175.879 C 139.041 175.181,139.041 174.038,138.954 173.340 C 138.868 172.642,138.797 173.213,138.797 174.609 M243.466 176.953 C 243.466 177.920,243.542 178.315,243.635 177.832 C 243.728 177.349,243.728 176.558,243.635 176.074 C 243.542 175.591,243.466 175.986,243.466 176.953 M201.221 176.133 C 200.925 176.321,200.684 176.953,200.684 177.539 C 200.684 179.083,202.993 180.068,203.748 178.846 C 203.931 178.549,203.839 178.492,203.478 178.680 C 203.177 178.836,203.237 178.712,203.613 178.404 C 203.989 178.096,204.297 177.707,204.297 177.539 C 204.297 177.372,203.989 176.982,203.613 176.674 C 203.237 176.366,203.177 176.242,203.478 176.399 C 203.839 176.586,203.931 176.529,203.748 176.232 C 203.421 175.703,201.989 175.647,201.221 176.133 M191.406 180.091 C 187.876 183.026,186.834 183.617,186.309 182.985 C 185.721 182.276,185.727 182.270,189.244 179.940 C 192.318 177.904,193.904 178.015,191.406 180.091 M139.153 179.688 C 139.153 180.439,139.234 180.747,139.332 180.371 C 139.430 179.995,139.430 179.380,139.332 179.004 C 139.234 178.628,139.153 178.936,139.153 179.688 M263.525 188.330 C 263.200 189.958,263.515 190.274,263.867 188.672 C 264.015 187.997,264.055 187.363,263.956 187.263 C 263.856 187.164,263.663 187.644,263.525 188.330 M231.044 203.613 L 228.320 206.445 231.152 203.721 C 233.783 201.191,234.163 200.781,233.876 200.781 C 233.817 200.781,232.542 202.056,231.044 203.613 M145.703 202.734 C 146.142 203.594,146.588 204.297,146.696 204.297 C 146.803 204.297,146.532 203.594,146.094 202.734 C 145.655 201.875,145.209 201.172,145.101 201.172 C 144.994 201.172,145.265 201.875,145.703 202.734 M172.852 203.516 C 174.127 204.805,175.259 205.859,175.366 205.859 C 175.474 205.859,174.518 204.805,173.242 203.516 C 171.967 202.227,170.835 201.172,170.728 201.172 C 170.620 201.172,171.576 202.227,172.852 203.516 M196.582 215.504 C 196.958 215.602,197.573 215.602,197.949 215.504 C 198.325 215.405,198.018 215.325,197.266 215.325 C 196.514 215.325,196.206 215.405,196.582 215.504 M206.348 215.504 C 206.724 215.602,207.339 215.602,207.715 215.504 C 208.091 215.405,207.783 215.325,207.031 215.325 C 206.279 215.325,205.972 215.405,206.348 215.504 M243.549 222.363 L 238.086 227.930 243.652 222.466 C 248.823 217.391,249.396 216.797,249.116 216.797 C 249.059 216.797,246.554 219.302,243.549 222.363 M163.086 225.000 C 167.164 229.082,170.588 232.422,170.695 232.422 C 170.803 232.422,167.554 229.082,163.477 225.000 C 159.399 220.918,155.975 217.578,155.867 217.578 C 155.760 217.578,159.008 220.918,163.086 225.000 M224.414 241.797 C 219.906 246.309,216.306 250.000,216.413 250.000 C 216.521 250.000,220.297 246.309,224.805 241.797 C 229.313 237.285,232.913 233.594,232.806 233.594 C 232.698 233.594,228.922 237.285,224.414 241.797 M189.453 251.758 C 196.433 258.740,202.232 264.453,202.339 264.453 C 202.447 264.453,196.824 258.740,189.844 251.758 C 182.864 244.775,177.065 239.063,176.958 239.063 C 176.850 239.063,182.473 244.775,189.453 251.758 M99.805 263.491 C 98.264 264.024,98.261 264.029,99.609 263.801 C 101.203 263.532,102.832 262.938,101.953 262.945 C 101.631 262.948,100.664 263.194,99.805 263.491 M304.102 263.672 C 304.531 263.857,305.146 264.008,305.469 264.008 C 305.838 264.008,305.766 263.883,305.273 263.672 C 304.844 263.487,304.229 263.336,303.906 263.336 C 303.537 263.336,303.609 263.460,304.102 263.672 M93.555 265.234 C 93.062 265.446,92.990 265.570,93.359 265.570 C 93.682 265.570,94.297 265.419,94.727 265.234 C 95.219 265.023,95.291 264.899,94.922 264.899 C 94.600 264.899,93.984 265.050,93.555 265.234 M309.766 265.184 C 310.088 265.377,310.967 265.644,311.719 265.777 C 312.641 265.941,312.832 265.911,312.305 265.685 C 311.097 265.168,309.072 264.769,309.766 265.184 M84.961 267.578 C 84.469 267.790,84.396 267.914,84.766 267.914 C 85.088 267.914,85.703 267.763,86.133 267.578 C 86.625 267.367,86.697 267.242,86.328 267.242 C 86.006 267.242,85.391 267.393,84.961 267.578 M318.164 267.578 C 318.594 267.763,319.209 267.914,319.531 267.914 C 319.901 267.914,319.828 267.790,319.336 267.578 C 318.906 267.393,318.291 267.242,317.969 267.242 C 317.599 267.242,317.672 267.367,318.164 267.578 M92.773 273.047 C 93.203 273.232,93.818 273.383,94.141 273.383 C 94.510 273.383,94.438 273.258,93.945 273.047 C 93.516 272.862,92.900 272.711,92.578 272.711 C 92.209 272.711,92.281 272.835,92.773 273.047 M105.273 276.563 C 105.703 276.747,106.318 276.898,106.641 276.898 C 107.010 276.898,106.938 276.774,106.445 276.563 C 106.016 276.378,105.400 276.227,105.078 276.227 C 104.709 276.227,104.781 276.351,105.273 276.563 M297.852 276.563 C 297.359 276.774,297.287 276.898,297.656 276.898 C 297.979 276.898,298.594 276.747,299.023 276.563 C 299.516 276.351,299.588 276.227,299.219 276.227 C 298.896 276.227,298.281 276.378,297.852 276.563 M112.305 278.516 C 112.734 278.700,113.350 278.851,113.672 278.851 C 114.041 278.851,113.969 278.727,113.477 278.516 C 113.047 278.331,112.432 278.180,112.109 278.180 C 111.740 278.180,111.812 278.304,112.305 278.516 M290.820 278.516 C 290.328 278.727,290.256 278.851,290.625 278.851 C 290.947 278.851,291.563 278.700,291.992 278.516 C 292.485 278.304,292.557 278.180,292.188 278.180 C 291.865 278.180,291.250 278.331,290.820 278.516 M285.156 280.078 C 284.371 280.330,284.333 280.393,284.961 280.402 C 285.391 280.409,286.094 280.263,286.523 280.078 C 287.519 279.650,286.492 279.650,285.156 280.078 M269.727 284.375 C 269.234 284.587,269.162 284.711,269.531 284.711 C 269.854 284.711,270.469 284.560,270.898 284.375 C 271.391 284.163,271.463 284.039,271.094 284.039 C 270.771 284.039,270.156 284.190,269.727 284.375 M144.727 287.500 C 145.156 287.685,145.771 287.836,146.094 287.836 C 146.463 287.836,146.391 287.712,145.898 287.500 C 145.469 287.315,144.854 287.164,144.531 287.164 C 144.162 287.164,144.234 287.288,144.727 287.500 M199.248 302.326 C 198.906 302.537,199.003 302.689,199.576 302.839 C 200.024 302.956,200.477 302.911,200.583 302.739 C 200.861 302.290,199.825 301.969,199.248 302.326 M203.944 302.321 C 203.662 302.495,203.591 302.735,203.786 302.855 C 203.980 302.975,204.369 302.931,204.650 302.757 C 204.931 302.584,205.003 302.343,204.808 302.223 C 204.614 302.103,204.225 302.147,203.944 302.321 " stroke="none" fill="#2a92b3" fill-rule="evenodd"></path></g></svg>